<svg width="50" height="51" viewBox="0 0 50 51" fill="none" xmlns="http://www.w3.org/2000/svg">
<path d="M49 25.5C49 39.0497 38.2363 50 25 50C11.7637 50 1 39.0497 1 25.5C1 11.9503 11.7637 1 25 1C38.2363 1 49 11.9503 49 25.5Z" stroke="#15803D" stroke-width="2"/>
<mask id="mask0_95_12" style="mask-type:alpha" maskUnits="userSpaceOnUse" x="0" y="1" width="45" height="47">
<ellipse cx="22.1538" cy="24.5294" rx="22.1538" ry="22.5882" fill="#15803D"/>
</mask>
<g mask="url(#mask0_95_12)">
<path fill-rule="evenodd" clip-rule="evenodd" d="M22.1538 47.1176C34.3891 47.1176 44.3077 37.0045 44.3077 24.5294C44.3077 18.6112 42.0754 13.2245 38.4226 9.19704C38.541 8.7326 38.5606 8.25217 38.4814 7.75574C38.3308 6.81142 37.8306 6.03835 36.9811 5.43655C36.1684 4.86092 35.2834 4.65279 34.3259 4.81216C34.0063 4.86536 33.7086 4.95585 33.4327 5.08363C30.129 3.08722 26.2727 1.94116 22.1538 1.94116C9.91862 1.94116 0 12.0543 0 24.5294C0 31.4498 3.05228 37.6433 7.85909 41.7868L6.56047 43.6927C5.9959 44.5213 5.80742 45.4208 5.99503 46.3913C6.18264 47.3618 6.68276 48.1349 7.4954 48.7105C8.30803 49.2861 9.18385 49.4877 10.1229 49.3153C11.0619 49.1428 11.8136 48.6423 12.3782 47.8137L13.8024 45.7235C16.5957 47.0383 19.3101 47.5027 21.9455 47.1167C22.0149 47.1173 22.0843 47.1176 22.1538 47.1176ZM21.9455 47.1167C21.9705 47.113 21.9955 47.1093 22.0205 47.1054C24.6794 46.6995 27.0153 45.0596 29.0282 42.1858C30.7219 39.7 31.4331 37.0488 31.1617 34.2321C30.8903 31.4154 29.6645 28.5927 27.4844 25.7641C25.097 22.677 23.7264 20.5893 23.3726 19.501C23.0188 18.4128 23.1498 17.4167 23.7657 16.5128C24.1763 15.9102 24.8254 15.5604 25.7131 15.4633C26.6008 15.3661 27.7095 15.7885 29.0393 16.7305C29.7041 17.2014 30.243 17.7367 30.656 18.3364C31.0689 18.936 31.363 19.5492 31.5384 20.176C31.9117 21.5572 32.3999 22.629 33.0032 23.3913C33.6065 24.1537 34.3119 24.6254 35.1195 24.8066C36.3991 25.0988 37.5351 24.8984 38.5276 24.2054C39.52 23.5124 40.0143 22.6061 40.0104 21.4866C40.0046 19.8072 39.6821 18.2108 39.0431 16.6971C38.4041 15.1835 37.5352 13.7863 36.4364 12.5054L37.8606 10.4151C38.1284 10.0221 38.3157 9.61608 38.4226 9.19704C36.9676 7.59284 35.2872 6.20427 33.4327 5.08363C32.8822 5.33862 32.419 5.7421 32.0429 6.29407L30.6186 8.38433C28.0431 7.34169 25.5118 7.09818 23.0247 7.6538C20.5376 8.20943 18.4985 9.65477 16.9075 11.9898C15.4191 14.1742 14.7531 16.5783 14.9096 19.2019C15.0661 21.8256 16.412 24.7333 18.9471 27.9251C21.1046 30.6261 22.3608 32.6606 22.7156 34.0287C23.0704 35.3969 22.9142 36.5705 22.247 37.5498C21.5541 38.5666 20.6651 39.0676 19.5799 39.0528C18.4947 39.0379 17.2503 38.5334 15.8466 37.5391C14.8124 36.8064 14.0301 35.9452 13.4997 34.9553C12.9694 33.9653 12.7038 32.8279 12.703 31.5431C12.7279 30.2205 12.468 29.115 11.9232 28.2266C11.3785 27.3382 10.6156 26.7699 9.63463 26.5217C8.51716 26.2327 7.4445 26.3803 6.41665 26.9644C5.38881 27.5486 4.79013 28.367 4.6206 29.4195C4.22712 31.7653 4.32676 33.9299 4.91953 35.9133C5.51229 37.8967 6.57251 39.7366 8.10019 41.433L7.85909 41.7868C11.6681 45.0702 16.5788 47.0663 21.9455 47.1167Z" fill="#15803D"/>
</g>
</svg>
